<?xml version="1.0" encoding="UTF-8"?>
<svg id="Ebene_2" data-name="Ebene 2" xmlns="http://www.w3.org/2000/svg" viewBox="0 0 519.02 400.65">
  <defs>
    <style>
      .cls-1, .cls-2 {
        fill: #fff;
      }

      .cls-3 {
        letter-spacing: -.05em;
      }

      .cls-2 {
        font-family: PlayfairDisplayRoman-Medium, 'Playfair Display';
        font-size: 163.55px;
        font-variation-settings: 'wght' 500;
        font-weight: 500;
      }
    </style>
  </defs>
  <g id="Ebene_1-2" data-name="Ebene 1">
    <text class="cls-2" transform="translate(149.77 361.23)"><tspan class="cls-3" x="0" y="0">K</tspan><tspan x="102.71" y="0">G</tspan></text>
    <path class="cls-1" d="M104.26,50.86c0-.29.23-.52.51-.52h32.37c.42,0,.77.34.77.77h0v22.32c0,.28.22.5.49.5.09,0,.18-.03.26-.08L258.81.15c.33-.2.74-.2,1.07,0l207.34,126.34c.6.36.96,1.01.95,1.7-.05,13.32-.06,23.82-.02,31.5,0,.31-.12.49-.36.53-.23.04-.49-.02-.78-.18-40.37-22.72-98.42-55.1-174.13-97.16-6.67-3.71-17.52-9.93-32.56-18.68-.28-.17-.62-.17-.91-.01L51.57,160.19c-.24.13-.54.04-.67-.2-.04-.07-.06-.15-.06-.23v-32.28c0-.19.1-.36.26-.46l52.58-32.26c.36-.21.58-.6.58-1.01v-42.9Z"/>
    <path class="cls-1" d="M518.93,224.75c.08.04.11.12.08.19h0c-.03.07-.09.09-.15.07-19.89-8.49-40.72-15.73-62.48-21.72-13.81-3.81-26.48-6.91-38.01-9.3-90.85-18.86-182.17-21.27-273.95-7.24-10.86,1.67-25.47,4.45-35.72,6.42-36.58,7.02-73.45,17.58-108.45,32.28-.08.03-.17,0-.21-.08H.01c-.04-.09,0-.19.08-.24,20.35-10.12,40.34-19.02,59.97-26.7,25.95-10.15,53.72-18.51,83.31-25.07,86.75-19.24,172.71-17.33,257.89,5.75,21.49,5.82,42.47,12.83,62.96,21.02,17.98,7.19,36.21,15.39,54.69,24.61Z"/>
  </g>
</svg>